<?xml version="1.0" encoding="UTF-8"?>
<svg width="51px" height="51px" viewBox="0 0 51 51" version="1.1" xmlns="http://www.w3.org/2000/svg" xmlns:xlink="http://www.w3.org/1999/xlink">
    <!-- Generator: Sketch 51.2 (57519) - http://www.bohemiancoding.com/sketch -->
    <title>noun_focus_1532502</title>
    <desc>Created with Sketch.</desc>
    <defs></defs>
    <g id="Page-1" stroke="none" stroke-width="1" fill="none" fill-rule="evenodd">
        <g id="noun_focus_1532502" fill="#f4f4f4" fill-rule="nonzero">
            <path d="M47.93046,24.88929 L47.84973,23.86119 C47.00103,13.03992 38.20008,4.23966 27.37881,3.39027 L26.35071,3.30885 L26.35071,0.25008 L24.88929,0.25008 L24.88929,3.30885 L23.86119,3.39027 C13.03992,4.23966 4.23966,13.03992 3.39027,23.86119 L3.30885,24.88929 L0.25008,24.88929 L0.25008,26.35071 L3.30885,26.35071 L3.39027,27.37881 C4.23966,38.20008 13.03992,47.00103 23.86119,47.84973 L24.88929,47.93046 L24.88929,50.98992 L26.35071,50.98992 L26.35071,47.93046 L27.37881,47.84973 C38.20008,47.00103 47.00103,38.20008 47.84973,27.37881 L47.93046,26.35071 L50.98992,26.35071 L50.98992,24.88929 L47.93046,24.88929 Z M46.3338,26.35071 L46.21926,27.57063 C45.29052,37.44798 37.44867,45.29121 27.57201,46.21857 L26.35209,46.33311 L26.35209,43.26675 L24.88998,43.26675 L24.88998,46.33311 L23.67006,46.21857 C13.7934,45.28983 5.95086,37.44729 5.02143,27.56994 L4.9062,26.35002 L7.97256,26.35002 L7.97256,24.8886 L4.9062,24.8886 L5.02143,23.66868 C5.95017,13.79202 13.79271,5.94879 23.67006,5.02005 L24.88998,4.90482 L24.88998,7.97118 L26.35209,7.97118 L26.35209,4.9062 L27.57201,5.02143 C37.44936,5.95017 45.2919,13.7934 46.21926,23.67006 L46.3338,24.88929 L43.26813,24.88929 L43.26813,26.35071 L46.3338,26.35071 Z" id="Shape"></path>
        </g>
    </g>
</svg>