<?xml version="1.0" encoding="UTF-8"?>
<svg width="66px" height="66px" viewBox="0 0 66 66" version="1.1" xmlns="http://www.w3.org/2000/svg" xmlns:xlink="http://www.w3.org/1999/xlink">
    <!-- Generator: Sketch 51.2 (57519) - http://www.bohemiancoding.com/sketch -->
    <title>noun_aim_1357408</title>
    <desc>Created with Sketch.</desc>
    <defs></defs>
    <g id="Page-1" stroke="none" stroke-width="1" fill="none" fill-rule="evenodd">
        <g id="noun_aim_1357408" fill="#F4F4F4" fill-rule="nonzero">
            <path d="M16.6461913,0.1899756 C7.57626345,0.2979882 0.297867726,7.5763083 0.189961041,16.6462065 L2.97960944,16.6462065 C3.69758163,9.4136817 9.41338224,3.6956241 16.6461913,2.9782725 L16.6461913,0.1899756 Z M49.3538087,0.1899756 L49.3538087,2.9782725 C56.5866178,3.6956241 62.3024184,9.4136817 63.0203903,16.6462065 L65.8100389,16.6462065 C65.7021326,7.5763083 58.4237366,0.2979882 49.3538087,0.1899756 Z M0.189961041,49.3537866 C0.297867726,58.4236986 7.57626345,65.7020256 16.6461913,65.8100106 L16.6461913,63.0217206 C9.41338224,62.3043966 3.69758163,56.5862976 2.97960944,49.3537866 L0.189961041,49.3537866 Z M63.0203903,49.3537866 C62.3024184,56.5862976 56.5866178,62.3043966 49.3538087,63.0217206 L49.3538087,65.8100106 C58.4237366,65.7020256 65.7021326,58.4236986 65.8100389,49.3537866 L63.0203903,49.3537866 Z" id="Shape"></path>
        </g>
    </g>
</svg>